STARTFONT 2.1
FONT -FontForge-Digital7 Mono-Book-I-Normal--65-720-65-65-P-295-ISO10646-1
SIZE 72 65 65
FONTBOUNDINGBOX 29 57 0 -7
COMMENT "Generated by fontforge, http://fontforge.sourceforge.net"
COMMENT "Created by Sizenko Alexander. (c) 2008 Style-7. All rights reserved. http://www.styleseven.com"
STARTPROPERTIES 40
FOUNDRY "FontForge"
FAMILY_NAME "Digital7 Mono"
WEIGHT_NAME "Book"
SLANT "I"
SETWIDTH_NAME "Normal"
ADD_STYLE_NAME ""
PIXEL_SIZE 65
POINT_SIZE 720
RESOLUTION_X 65
RESOLUTION_Y 65
SPACING "P"
AVERAGE_WIDTH 295
CHARSET_REGISTRY "ISO10646"
CHARSET_ENCODING "1"
FONTNAME_REGISTRY ""
CHARSET_COLLECTIONS "ISO10646-1"
FONT_NAME "Digital-7Mono"
FACE_NAME "Digital-7 Mono"
COPYRIGHT "Created by Sizenko Alexander. (c) 2008 Style-7. All rights reserved. http://www.styleseven.com"
FONT_VERSION "1.02 Apr 07 12:15:00 2011"
FONT_ASCENT 52
FONT_DESCENT 13
UNDERLINE_POSITION -9
UNDERLINE_THICKNESS 5
X_HEIGHT 42
CAP_HEIGHT 42
RAW_ASCENT 800
RAW_DESCENT 200
NORM_SPACE 30
RELATIVE_WEIGHT 40
RELATIVE_SETWIDTH 50
SUPERSCRIPT_X 0
SUPERSCRIPT_Y 26
SUPERSCRIPT_SIZE 38
SUBSCRIPT_X 0
SUBSCRIPT_Y 8
SUBSCRIPT_SIZE 38
FIGURE_WIDTH 29
AVG_LOWERCASE_WIDTH 293
AVG_UPPERCASE_WIDTH 293
ENDPROPERTIES
CHARS 107
STARTCHAR space
ENCODING 32
SWIDTH 454 0
DWIDTH 29 0
BBX 1 1 0 0
BITMAP
00
ENDCHAR
STARTCHAR exclam
ENCODING 33
SWIDTH 454 0
DWIDTH 30 0
BBX 5 43 12 0
BITMAP
20
70
78
F8
F8
F8
F8
F8
F8
F8
F8
F8
F8
F8
F8
F8
F8
F8
78
38
00
00
18
38
78
F8
F8
F8
F8
F8
F8
F8
F8
00
00
00
00
00
F8
F8
F8
F8
F8
ENDCHAR
STARTCHAR quotedbl
ENCODING 34
SWIDTH 454 0
DWIDTH 30 0
BBX 15 12 8 31
BITMAP
F83E
F83E
F83E
F83E
F83E
F83E
F83E
F83E
F83E
F83E
701C
2008
ENDCHAR
STARTCHAR numbersign
ENCODING 35
SWIDTH 454 0
DWIDTH 30 0
BBX 26 28 2 7
BITMAP
00804000
01C0E000
03E1F000
03E1F000
03E1F000
03E1F000
01C0E000
389C4700
7C3E0F80
FE7F1FC0
7CBE4F80
39DCE700
03E1F000
03E1F000
03E1F000
01C0E000
389C4700
7C3E0F80
FE7F1FC0
7C3E0F80
389C4700
01C0E000
03E1F000
03E1F000
03E1F000
03E1F000
01C0E000
00804000
ENDCHAR
STARTCHAR dollar
ENCODING 36
SWIDTH 454 0
DWIDTH 29 0
BBX 25 57 2 -7
BITMAP
00040000
000E0000
001F0000
001F0000
001F0000
001F0000
00000000
00000000
3FFFFF00
7FFFFF80
FFFFFF80
8FFFFC00
F0000000
F8000000
F81F0000
F81F0000
F81F0000
F81F0000
F81F0000
F81F0000
F81F0000
F81F0000
F81F0000
F81F0000
F8000000
F0000000
EFFFF000
5FFFF800
3FFFFC00
1FFFF800
0FFFF180
00000380
00000780
001F0F80
001F0F80
001F0F80
001F0F80
001F0F80
001F0F80
001F0F80
001F0F80
001F0F80
001F0F80
00000F80
00000F80
0FFFEF80
7FFFEF80
FFFFF780
7FFFF700
3FFFF200
00000000
00000000
001F0000
001F0000
001F0000
000E0000
00040000
ENDCHAR
STARTCHAR percent
ENCODING 37
SWIDTH 454 0
DWIDTH 30 0
BBX 29 42 0 0
BITMAP
3FD00380
7FB807C0
FFBC07E0
7FBC0FC0
8F7C0FC0
F07C1F80
F87C1F80
F87C3F00
F83C3F00
FBC47E00
F7F87E00
F7FCFC00
77F8FC00
2FF1F800
0001F800
0001F000
0001F000
0001E000
0001E000
0001C000
0001C000
001C0000
001C0000
003C0000
003C0000
007C0000
007C0000
00FC0000
00FC7FA0
01F8FF70
01F9FF78
03F0FF78
03F11EF8
07E1E0F8
07E1F0F8
0FC1F0F8
0FC1F078
1F81F788
1F81EFF0
3F01EFF8
1F00EFF0
0E005FE0
ENDCHAR
STARTCHAR ampersand
ENCODING 38
SWIDTH 454 0
DWIDTH 30 0
BBX 27 45 2 -5
BITMAP
0FFFC800
1FFFDC00
1FFFDE00
0FFF9E00
23FFBE00
1C003E00
1F003E00
1F003E00
1F003E00
1F003E00
1F003E00
1F003E00
1F003E00
1E001E00
1C000E00
08000600
07FFF800
0FFFFC00
1FFFFE00
4FFFFC00
E7FFF9C0
F00003C0
F80007C0
F80007C0
F80007C0
F80007C0
F80007C0
F80007C0
F80007C0
F80007C0
F80007C0
F80007C0
F80007C0
F80003C0
E0000000
0FFFFF00
7FFFFF80
FFFFFFC0
7FFFFFE0
3FFFFFE0
00000000
000007C0
000003C0
000001C0
00000080
ENDCHAR
STARTCHAR quotesingle
ENCODING 39
SWIDTH 454 0
DWIDTH 30 0
BBX 5 12 13 31
BITMAP
F8
F8
F8
F8
F8
F8
F8
F8
F8
F8
70
20
ENDCHAR
STARTCHAR parenleft
ENCODING 40
SWIDTH 454 0
DWIDTH 30 0
BBX 15 43 2 0
BITMAP
03F8
07FC
0FFE
07FC
33F8
7800
F800
F800
F800
F800
F800
F800
F800
F800
F800
F800
F800
F800
F000
E000
4000
0000
0000
E000
F000
F800
F800
F800
F800
F800
F800
F800
F800
F800
F800
F800
F800
F800
7BF8
17FC
0FFE
07FC
03F8
ENDCHAR
STARTCHAR parenright
ENCODING 41
SWIDTH 454 0
DWIDTH 30 0
BBX 15 43 11 0
BITMAP
3FC0
7FE0
FFE0
7FE0
3FD8
003C
003E
003E
003E
003E
003E
003E
003E
003E
003E
003E
003E
003E
001E
000E
0004
0000
0000
000E
001E
003E
003E
003E
003E
003E
003E
003E
003E
003E
003E
003E
003E
003E
3FFC
7FF0
FFE0
7FE0
3FC0
ENDCHAR
STARTCHAR asterisk
ENCODING 42
SWIDTH 454 0
DWIDTH 30 0
BBX 19 23 5 10
BITMAP
004000
00E000
01F000
01F000
01F000
71F1C0
FDF7E0
FFFFE0
FFFFE0
7FFFC0
1FFF00
07FC00
1FFF00
7FFFC0
FFFFE0
FFFFE0
FDF7E0
71F1C0
01F000
01F000
01F000
00E000
004000
ENDCHAR
STARTCHAR plus
ENCODING 43
SWIDTH 454 0
DWIDTH 30 0
BBX 21 20 4 11
BITMAP
002000
007000
00F800
00F800
00F800
00F800
00F800
3FFFE0
7FFFF0
FFFFF8
7FFFF0
3FFFE0
00F800
00F800
00F800
00F800
00F800
00F800
007000
002000
ENDCHAR
STARTCHAR comma
ENCODING 44
SWIDTH 454 0
DWIDTH 30 0
BBX 5 12 12 -7
BITMAP
F8
F8
F8
F8
F8
F8
F8
F8
F8
F8
70
20
ENDCHAR
STARTCHAR hyphen
ENCODING 45
SWIDTH 454 0
DWIDTH 30 0
BBX 20 5 5 19
BITMAP
3FFFC0
7FFFE0
FFFFF0
7FFFE0
3FFFC0
ENDCHAR
STARTCHAR period
ENCODING 46
SWIDTH 454 0
DWIDTH 30 0
BBX 5 5 12 0
BITMAP
F8
F8
F8
F8
F8
ENDCHAR
STARTCHAR slash
ENCODING 47
SWIDTH 454 0
DWIDTH 30 0
BBX 25 43 2 0
BITMAP
00000E00
00000F80
00001F80
00001F80
00003F00
00003F00
00007E00
00007E00
0000FC00
0000FC00
0001F800
0001F800
0003F000
0003F000
0007E000
0007E000
0007C000
0007C000
00078000
00078000
00070000
00000000
00700000
00700000
00F00000
00F00000
01F00000
01F00000
03F00000
03F00000
07E00000
07E00000
0FC00000
0FC00000
1F800000
1F800000
3F000000
3F000000
7E000000
7E000000
FC000000
7C000000
38000000
ENDCHAR
STARTCHAR zero
ENCODING 48
SWIDTH 454 0
DWIDTH 29 0
BBX 25 43 2 0
BITMAP
3FFFF200
7FFFF700
FFFFF780
7FFFE780
0FFFEF80
E0000F80
F8000F80
F8000F80
F8000F80
F8000F80
F8000F80
F8000F80
F8000F80
F8000F80
F8000F80
F8000F80
F8000F80
F8000F80
F0000780
E0000380
40000100
00000000
40000100
E0000380
F0000780
F8000F80
F8000F80
F8000F80
F8000F80
F8000F80
F8000F80
F8000F80
F8000F80
F8000F80
F8000F80
F8000F80
F8000F80
E0000F80
0FFFEF80
7FFFE780
FFFFF780
7FFFF700
3FFFF200
ENDCHAR
STARTCHAR one
ENCODING 49
SWIDTH 454 0
DWIDTH 29 0
BBX 5 43 22 0
BITMAP
20
70
78
F8
F8
F8
F8
F8
F8
F8
F8
F8
F8
F8
F8
F8
F8
F8
78
38
00
00
00
38
78
F8
F8
F8
F8
F8
F8
F8
F8
F8
F8
F8
F8
F8
F8
F8
78
70
20
ENDCHAR
STARTCHAR two
ENCODING 50
SWIDTH 454 0
DWIDTH 29 0
BBX 25 43 2 0
BITMAP
3FFFF200
7FFFF700
FFFFF780
7FFFE780
0FFFEF80
00000F80
00000F80
00000F80
00000F80
00000F80
00000F80
00000F80
00000F80
00000F80
00000F80
00000F80
00000F80
00000F80
00000780
07FFF380
0FFFF900
1FFFFC00
4FFFF800
E7FFF000
F0000000
F8000000
F8000000
F8000000
F8000000
F8000000
F8000000
F8000000
F8000000
F8000000
F8000000
F8000000
F8000000
E0000000
0FFFF800
7FFFF800
FFFFFC00
7FFFFC00
3FFFFC00
ENDCHAR
STARTCHAR three
ENCODING 51
SWIDTH 454 0
DWIDTH 29 0
BBX 25 43 2 0
BITMAP
3FFFF200
7FFFF700
FFFFF780
7FFFE780
1FFFEF80
00000F80
00000F80
00000F80
00000F80
00000F80
00000F80
00000F80
00000F80
00000F80
00000F80
00000F80
00000F80
00000F80
00000780
0FFFF380
1FFFF900
3FFFFC00
1FFFF900
0FFFF380
00000780
00000F80
00000F80
00000F80
00000F80
00000F80
00000F80
00000F80
00000F80
00000F80
00000F80
00000F80
00000F80
00000F80
1FFFEF80
7FFFE780
FFFFF780
7FFFF700
3FFFF200
ENDCHAR
STARTCHAR four
ENCODING 52
SWIDTH 454 0
DWIDTH 29 0
BBX 25 43 2 0
BITMAP
00000200
00000700
00000780
E0000F80
F8000F80
F8000F80
F8000F80
F8000F80
F8000F80
F8000F80
F8000F80
F8000F80
F8000F80
F8000F80
F8000F80
F8000F80
F8000F80
F8000F80
F0000780
E7FFF380
4FFFF800
1FFFFC00
0FFFF800
07FFF380
00000780
00000F80
00000F80
00000F80
00000F80
00000F80
00000F80
00000F80
00000F80
00000F80
00000F80
00000F80
00000F80
00000F80
00000F80
00000F80
00000780
00000700
00000200
ENDCHAR
STARTCHAR five
ENCODING 53
SWIDTH 454 0
DWIDTH 29 0
BBX 25 43 2 0
BITMAP
3FFFFC00
7FFFFC00
FFFFFC00
7FFFF800
0FFFF800
E0000000
F8000000
F8000000
F8000000
F8000000
F8000000
F8000000
F8000000
F8000000
F8000000
F8000000
F8000000
F8000000
F0000000
E7FFF000
4FFFF800
1FFFFC00
0FFFF900
07FFF380
00000780
00000F80
00000F80
00000F80
00000F80
00000F80
00000F80
00000F80
00000F80
00000F80
00000F80
00000F80
00000F80
00000F80
0FFFEF80
7FFFE780
FFFFF780
7FFFF700
3FFFF200
ENDCHAR
STARTCHAR six
ENCODING 54
SWIDTH 454 0
DWIDTH 29 0
BBX 25 43 2 0
BITMAP
3FFFFC00
7FFFFC00
FFFFFC00
7FFFF800
0FFFF800
E0000000
F8000000
F8000000
F8000000
F8000000
F8000000
F8000000
F8000000
F8000000
F8000000
F8000000
F8000000
F8000000
F0000000
E7FFF000
4FFFF800
1FFFFC00
4FFFF900
E7FFF380
F0000780
F8000F80
F8000F80
F8000F80
F8000F80
F8000F80
F8000F80
F8000F80
F8000F80
F8000F80
F8000F80
F8000F80
F8000F80
E0000F80
0FFFEF80
7FFFE780
FFFFF780
7FFFF700
3FFFF200
ENDCHAR
STARTCHAR seven
ENCODING 55
SWIDTH 454 0
DWIDTH 29 0
BBX 25 43 2 0
BITMAP
3FFFF200
7FFFF700
FFFFF780
7FFFE780
0FFFEF80
E0000F80
F8000F80
F8000F80
F8000F80
F8000F80
F8000F80
F8000F80
F8000F80
F8000F80
F8000F80
F8000F80
F8000F80
F8000F80
F0000780
E0000380
40000100
00000000
00000000
00000380
00000780
00000F80
00000F80
00000F80
00000F80
00000F80
00000F80
00000F80
00000F80
00000F80
00000F80
00000F80
00000F80
00000F80
00000F80
00000F80
00000780
00000700
00000200
ENDCHAR
STARTCHAR eight
ENCODING 56
SWIDTH 454 0
DWIDTH 29 0
BBX 25 43 2 0
BITMAP
3FFFF200
7FFFF700
FFFFF780
7FFFE780
0FFFEF80
E0000F80
F8000F80
F8000F80
F8000F80
F8000F80
F8000F80
F8000F80
F8000F80
F8000F80
F8000F80
F8000F80
F8000F80
F8000F80
F0000780
E7FFF380
4FFFF900
1FFFFC00
4FFFF900
E7FFF380
F0000780
F8000F80
F8000F80
F8000F80
F8000F80
F8000F80
F8000F80
F8000F80
F8000F80
F8000F80
F8000F80
F8000F80
F8000F80
E0000F80
0FFFEF80
7FFFE780
FFFFF780
7FFFF700
3FFFF200
ENDCHAR
STARTCHAR nine
ENCODING 57
SWIDTH 454 0
DWIDTH 29 0
BBX 25 43 2 0
BITMAP
3FFFF200
7FFFF700
FFFFF780
7FFFE780
0FFFEF80
E0000F80
F8000F80
F8000F80
F8000F80
F8000F80
F8000F80
F8000F80
F8000F80
F8000F80
F8000F80
F8000F80
F8000F80
F8000F80
F0000780
E7FFF380
4FFFF900
1FFFFC00
0FFFF900
07FFF380
00000780
00000F80
00000F80
00000F80
00000F80
00000F80
00000F80
00000F80
00000F80
00000F80
00000F80
00000F80
00000F80
00000F80
0FFFEF80
7FFFE780
FFFFF780
7FFFF700
3FFFF200
ENDCHAR
STARTCHAR colon
ENCODING 58
SWIDTH 454 0
DWIDTH 30 0
BBX 5 24 12 9
BITMAP
F8
F8
F8
F8
F8
00
00
00
00
00
00
00
00
00
00
00
00
00
00
F8
F8
F8
F8
F8
ENDCHAR
STARTCHAR semicolon
ENCODING 59
SWIDTH 454 0
DWIDTH 30 0
BBX 5 40 12 -7
BITMAP
F8
F8
F8
F8
F8
00
00
00
00
00
00
00
00
00
00
00
00
00
00
00
00
00
00
00
00
00
00
00
F8
F8
F8
F8
F8
F8
F8
F8
F8
F8
70
20
ENDCHAR
STARTCHAR less
ENCODING 60
SWIDTH 454 0
DWIDTH 30 0
BBX 16 25 6 9
BITMAP
001C
003E
007F
00FE
01FC
03F8
07F0
0FE0
1FC0
3F80
7F00
FE00
0000
FE00
7F00
3F80
1FC0
0FE0
07F0
03F8
01FC
00FE
007F
003E
001C
ENDCHAR
STARTCHAR equal
ENCODING 61
SWIDTH 454 0
DWIDTH 30 0
BBX 20 15 5 14
BITMAP
3FFFC0
7FFFE0
FFFFF0
7FFFE0
3FFFC0
000000
000000
000000
000000
000000
3FFFC0
7FFFE0
FFFFF0
7FFFE0
3FFFC0
ENDCHAR
STARTCHAR greater
ENCODING 62
SWIDTH 454 0
DWIDTH 30 0
BBX 15 25 6 9
BITMAP
7800
7C00
FE00
7F00
3F80
1FC0
0FE0
07F0
03F0
01F8
00FC
007E
0000
007E
00FC
01F8
03F0
07F0
0FE0
1FC0
3F80
7F00
FE00
7C00
7800
ENDCHAR
STARTCHAR question
ENCODING 63
SWIDTH 454 0
DWIDTH 29 0
BBX 25 43 2 0
BITMAP
3FFFF200
7FFFF700
FFFFF780
7FFFE780
0FFFEF80
00000F80
00000F80
00000F80
00000F80
00000F80
00000F80
00000F80
00000F80
00000F80
00000F80
00000F80
00000F80
00000F80
00000780
07FFF380
0FFFF900
1FFFFC00
0FFFF800
E7FFF000
F0000000
F8000000
F8000000
F8000000
F8000000
F8000000
F8000000
F8000000
F8000000
F8000000
00000000
00000000
00000000
00000000
F8000000
F8000000
F8000000
F8000000
F8000000
ENDCHAR
STARTCHAR at
ENCODING 64
SWIDTH 454 0
DWIDTH 29 0
BBX 25 43 2 0
BITMAP
3FFFF200
7FFFF700
FFFFF780
7FFFE780
1FFFEF80
E0000F80
F8000F80
F8000F80
F8000F80
F8000F80
F81FEF80
F83FEF80
F83FEF80
F81FEF80
F807EF80
F8380F80
F83E0F80
F83E0F80
F03C0780
E0380380
40300100
00000000
40000000
E0300380
F0380780
F83C0F80
F83E0F80
F83E0F80
F8380F80
F807EF80
F81FF780
F83FF780
F83FF700
F81FF800
F8000000
F8000000
F8000000
E0000000
0FFFE000
7FFFE000
FFFFF000
7FFFF000
3FFFF000
ENDCHAR
STARTCHAR A
ENCODING 65
SWIDTH 454 0
DWIDTH 29 0
BBX 25 43 2 0
BITMAP
3FFFF200
7FFFF700
FFFFF780
7FFFE780
0FFFEF80
E0000F80
F8000F80
F8000F80
F8000F80
F8000F80
F8000F80
F8000F80
F8000F80
F8000F80
F8000F80
F8000F80
F8000F80
F8000F80
F0000780
E7FFF380
4FFFF900
1FFFFC00
0FFFF800
E7FFF380
F0000780
F8000F80
F8000F80
F8000F80
F8000F80
F8000F80
F8000F80
F8000F80
F8000F80
F8000F80
F8000F80
F8000F80
F8000F80
F8000F80
F8000F80
F8000F80
F0000780
70000700
20000200
ENDCHAR
STARTCHAR B
ENCODING 66
SWIDTH 454 0
DWIDTH 29 0
BBX 25 43 2 0
BITMAP
FFFFF000
FFFFF800
FFFFFC00
7FFFF800
0FFFF600
E0000F00
F8000F80
F8000F80
F8000F80
F8000F80
F8000F80
F8000F80
F8000F80
F8000F80
F8000F80
F8000F80
F8000F80
F8000F80
F0000780
E7FFF380
4FFFF900
1FFFFC00
4FFFF800
E7FFF380
F0000780
F8000F80
F8000F80
F8000F80
F8000F80
F8000F80
F8000F80
F8000F80
F8000F80
F8000F80
F8000F80
F8000F80
F8000F80
E0000F80
0FFFFF00
7FFFFC00
FFFFF800
FFFFF800
FFFFF000
ENDCHAR
STARTCHAR C
ENCODING 67
SWIDTH 454 0
DWIDTH 30 0
BBX 23 43 2 0
BITMAP
3FFFFE
7FFFFC
7FFFFC
7FFFFC
0FFFF8
E00000
F80000
F80000
F80000
F80000
F80000
F80000
F80000
F80000
F80000
F80000
F80000
F80000
F00000
E00000
400000
000000
400000
E00000
F00000
F80000
F80000
F80000
F80000
F80000
F80000
F80000
F80000
F80000
F80000
F80000
F80000
E00000
0FFFF8
7FFFF8
FFFFFC
7FFFFC
3FFFFE
ENDCHAR
STARTCHAR D
ENCODING 68
SWIDTH 454 0
DWIDTH 29 0
BBX 25 43 2 0
BITMAP
FFFFF000
FFFFF800
FFFFFC00
7FFFF800
0FFFF600
E0000F00
F8000F80
F8000F80
F8000F80
F8000F80
F8000F80
F8000F80
F8000F80
F8000F80
F8000F80
F8000F80
F8000F80
F8000F80
F0000780
E0000380
40000100
00000000
40000000
E0000380
F0000780
F8000F80
F8000F80
F8000F80
F8000F80
F8000F80
F8000F80
F8000F80
F8000F80
F8000F80
F8000F80
F8000F80
F8000F80
E0000F80
0FFFFF00
7FFFFC00
FFFFF800
FFFFF800
FFFFF000
ENDCHAR
STARTCHAR E
ENCODING 69
SWIDTH 454 0
DWIDTH 30 0
BBX 23 43 2 0
BITMAP
3FFFFE
7FFFFC
7FFFFC
7FFFFC
0FFFF8
E00000
F80000
F80000
F80000
F80000
F80000
F80000
F80000
F80000
F80000
F80000
F80000
F80000
F00000
E7FFF8
4FFFFC
1FFFFE
4FFFFC
E7FFF8
F00000
F80000
F80000
F80000
F80000
F80000
F80000
F80000
F80000
F80000
F80000
F80000
F80000
E00000
0FFFF8
7FFFF8
FFFFFC
7FFFFC
3FFFFE
ENDCHAR
STARTCHAR F
ENCODING 70
SWIDTH 454 0
DWIDTH 30 0
BBX 23 43 2 0
BITMAP
3FFFFE
7FFFFC
7FFFFC
7FFFFC
0FFFF8
E00000
F80000
F80000
F80000
F80000
F80000
F80000
F80000
F80000
F80000
F80000
F80000
F80000
F00000
E7FFF8
4FFFFC
1FFFFE
0FFFFC
E7FFF8
F00000
F80000
F80000
F80000
F80000
F80000
F80000
F80000
F80000
F80000
F80000
F80000
F80000
F80000
F80000
F80000
F00000
700000
200000
ENDCHAR
STARTCHAR G
ENCODING 71
SWIDTH 454 0
DWIDTH 29 0
BBX 25 43 2 0
BITMAP
3FFFFC00
7FFFFC00
FFFFFC00
7FFFF800
0FFFF800
E0000000
F8000000
F8000000
F8000000
F8000000
F8000000
F8000000
F8000000
F8000000
F8000000
F8000000
F8000000
F8000000
F0000000
E003F000
4007F800
000FFC00
4007F900
E003F380
F0000780
F8000F80
F8000F80
F8000F80
F8000F80
F8000F80
F8000F80
F8000F80
F8000F80
F8000F80
F8000F80
F8000F80
F8000F80
E0000F80
0FFFEF80
7FFFE780
FFFFF780
7FFFF700
3FFFF200
ENDCHAR
STARTCHAR H
ENCODING 72
SWIDTH 454 0
DWIDTH 29 0
BBX 25 43 2 0
BITMAP
00000200
20000700
70000780
F0000F80
F8000F80
F8000F80
F8000F80
F8000F80
F8000F80
F8000F80
F8000F80
F8000F80
F8000F80
F8000F80
F8000F80
F8000F80
F8000F80
F8000F80
F8000780
F7FFF380
EFFFF800
5FFFFC00
0FFFF800
E7FFF380
F0000780
F8000F80
F8000F80
F8000F80
F8000F80
F8000F80
F8000F80
F8000F80
F8000F80
F8000F80
F8000F80
F8000F80
F8000F80
F8000F80
F8000F80
F8000F80
F0000780
70000700
20000200
ENDCHAR
STARTCHAR I
ENCODING 73
SWIDTH 454 0
DWIDTH 30 0
BBX 5 42 12 1
BITMAP
20
70
78
F8
F8
F8
F8
F8
F8
F8
F8
F8
F8
F8
F8
F8
F8
F8
78
38
00
00
38
78
F8
F8
F8
F8
F8
F8
F8
F8
F8
F8
F8
F8
F8
F8
F8
78
70
20
ENDCHAR
STARTCHAR J
ENCODING 74
SWIDTH 454 0
DWIDTH 29 0
BBX 25 43 2 0
BITMAP
00000200
00000700
00000780
00000F80
00000F80
00000F80
00000F80
00000F80
00000F80
00000F80
00000F80
00000F80
00000F80
00000F80
00000F80
00000F80
00000F80
00000F80
00000780
00000380
00000000
00000000
40000100
E0000380
F0000780
F8000F80
F8000F80
F8000F80
F8000F80
F8000F80
F8000F80
F8000F80
F8000F80
F8000F80
F8000F80
F8000F80
F8000F80
E0000F80
0FFFEF80
7FFFE780
FFFFF780
7FFFF700
3FFFF200
ENDCHAR
STARTCHAR K
ENCODING 75
SWIDTH 454 0
DWIDTH 29 0
BBX 25 43 2 0
BITMAP
20001E00
70003F00
F0007F80
F800FF00
F801FE00
F803FC00
F807F800
F80FF000
F81FE000
F83FC000
F87F8000
F8FF0000
F9FE0000
FBFC0000
FBF80000
FBF00000
FBE00000
FBC00000
F0000000
E7FFF000
0FFFF800
1FFFFC00
0FFFF800
E7FFF380
F0000780
F8000F80
F8000F80
F8000F80
F8000F80
F8000F80
F8000F80
F8000F80
F8000F80
F8000F80
F8000F80
F8000F80
F8000F80
F8000F80
F8000F80
F8000F80
F0000780
70000700
20000200
ENDCHAR
STARTCHAR L
ENCODING 76
SWIDTH 454 0
DWIDTH 30 0
BBX 25 43 2 0
BITMAP
20000000
70000000
F0000000
F8000000
F8000000
F8000000
F8000000
F8000000
F8000000
F8000000
F8000000
F8000000
F8000000
F8000000
F8000000
F8000000
F8000000
F8000000
F0000000
E0000000
00000000
00000000
40000000
E0000000
F0000000
F8000000
F8000000
F8000000
F8000000
F8000000
F8000000
F8000000
F8000000
F8000000
F8000000
F8000000
F8000000
F8000000
FBFFFC00
F3FFFF00
F7FFFF80
77FFFF00
27FFFE00
ENDCHAR
STARTCHAR M
ENCODING 77
SWIDTH 454 0
DWIDTH 29 0
BBX 25 43 2 0
BITMAP
3FFFF200
7FFFF700
FFFFF780
7FFFE780
0FFFEF80
E0000F80
F83E0F80
F83E0F80
F83E0F80
F83E0F80
F83E0F80
F83E0F80
F83E0F80
F83E0F80
F83E0F80
F83E0F80
F83E0F80
F83E0F80
F03E0780
E03E0380
401C0100
00080000
00000000
E0000380
F0000780
F8000F80
F8000F80
F8000F80
F8000F80
F8000F80
F8000F80
F8000F80
F8000F80
F8000F80
F8000F80
F8000F80
F8000F80
F8000F80
F8000F80
F8000F80
F0000780
70000700
20000200
ENDCHAR
STARTCHAR N
ENCODING 78
SWIDTH 454 0
DWIDTH 29 0
BBX 25 42 2 0
BITMAP
20000200
70000700
F0000780
F8000F80
F8000F80
FBE00F80
FBF00F80
FBF80F80
FBFC0F80
F9FE0F80
F8FF0F80
F87F8F80
F83FCF80
F81FEF80
F80FEF80
F807EF80
F803EF80
F8000F80
F0000780
E0000380
00000000
00000000
E0000380
F0000780
F8000F80
F8000F80
F8000F80
F8000F80
F8000F80
F8000F80
F8000F80
F8000F80
F8000F80
F8000F80
F8000F80
F8000F80
F8000F80
F8000F80
F8000F80
F0000780
70000700
20000200
ENDCHAR
STARTCHAR O
ENCODING 79
SWIDTH 454 0
DWIDTH 29 0
BBX 25 43 2 0
BITMAP
03FFF000
07FFF800
0FFFFC00
07FFF800
33FFF600
78000F00
F8000F80
F8000F80
F8000F80
F8000F80
F8000F80
F8000F80
F8000F80
F8000F80
F8000F80
F8000F80
F8000F80
F8000F80
F0000780
E0000380
40000100
00000000
00000000
E0000380
F0000780
F8000F80
F8000F80
F8000F80
F8000F80
F8000F80
F8000F80
F8000F80
F8000F80
F8000F80
F8000F80
F8000F80
F8000F80
F8000F80
7BFFFF00
17FFFC00
0FFFFC00
07FFF800
03FFF000
ENDCHAR
STARTCHAR P
ENCODING 80
SWIDTH 454 0
DWIDTH 29 0
BBX 25 43 2 0
BITMAP
FFFFF000
FFFFF800
FFFFFC00
7FFFF800
0FFFF600
E0000F00
F8000F80
F8000F80
F8000F80
F8000F80
F8000F80
F8000F80
F8000F80
F8000F80
F8000F80
F8000F80
F8000F80
F8000F80
F0000780
E7FFF380
4FFFF900
1FFFFC00
0FFFF800
E7FFF000
F0000000
F8000000
F8000000
F8000000
F8000000
F8000000
F8000000
F8000000
F8000000
F8000000
F8000000
F8000000
F8000000
F8000000
F8000000
F8000000
F0000000
70000000
20000000
ENDCHAR
STARTCHAR Q
ENCODING 81
SWIDTH 454 0
DWIDTH 29 0
BBX 26 44 2 -1
BITMAP
3FFFF200
7FFFF700
FFFFF780
7FFFE780
0FFFEF80
E0000F80
F8000F80
F8000F80
F8000F80
F8000F80
F8000F80
F8000F80
F8000F80
F8000F80
F8000F80
F8000F80
F8000F80
F8000F80
F0000780
E0000380
40000100
00000000
40000000
E0000380
F0000780
F8000F80
F8000F80
F8000F80
F8000F80
F8000F80
F8000F80
F8000F80
F8000F80
F801E780
F801F380
F801F980
F801FC80
E000FE00
0FFE7F00
7FFF3F80
FFFF9FC0
7FFFCFC0
3FFFE7C0
000003C0
ENDCHAR
STARTCHAR R
ENCODING 82
SWIDTH 454 0
DWIDTH 29 0
BBX 25 43 2 0
BITMAP
3FFFF200
7FFFF700
FFFFF780
7FFFE780
0FFFEF80
E0000F80
F8000F80
F8000F80
F8000F80
F8000F80
F8000F80
F8000F80
F8000F80
F8000F80
F8000F80
F8000F80
F8000F80
F8000F80
F0000780
E7FFF380
4FFFF900
1FFFFC00
0FFFF800
E7FFF000
F0000000
FBC00000
FBE00000
FBF00000
FBF80000
FBFC0000
F9FE0000
F8FF0000
F87F8000
F83FC000
F81FE000
F80FF000
F807F800
F803FC00
F801FE00
F800FF00
F0007F80
70003F00
20001E00
ENDCHAR
STARTCHAR S
ENCODING 83
SWIDTH 454 0
DWIDTH 29 0
BBX 25 43 2 0
BITMAP
3FFFFE00
7FFFFF00
FFFFFF80
7FFFFF00
0FFFF800
E0000000
F8000000
F8000000
F8000000
F8000000
F8000000
F8000000
F8000000
F8000000
F8000000
F8000000
F8000000
F8000000
F0000000
E7FFF000
4FFFF800
1FFFFC00
0FFFF900
07FFF380
00000780
00000F80
00000F80
00000F80
00000F80
00000F80
00000F80
00000F80
00000F80
00000F80
00000F80
00000F80
00000F80
00000F80
0FFFEF80
7FFFE780
FFFFF780
7FFFF700
3FFFF200
ENDCHAR
STARTCHAR T
ENCODING 84
SWIDTH 454 0
DWIDTH 30 0
BBX 24 43 3 0
BITMAP
7FFFFC
FFFFFE
FFFFFF
FFFFFE
1FFFF8
000000
007C00
007C00
007C00
007C00
007C00
007C00
007C00
007C00
007C00
007C00
007C00
007C00
007C00
003800
001000
000000
001000
003800
007C00
007C00
007C00
007C00
007C00
007C00
007C00
007C00
007C00
007C00
007C00
007C00
007C00
007C00
007C00
007C00
003C00
003800
001000
ENDCHAR
STARTCHAR U
ENCODING 85
SWIDTH 454 0
DWIDTH 29 0
BBX 25 43 2 0
BITMAP
00000200
20000700
70000780
F0000F80
F8000F80
F8000F80
F8000F80
F8000F80
F8000F80
F8000F80
F8000F80
F8000F80
F8000F80
F8000F80
F8000F80
F8000F80
F8000F80
F8000F80
F8000780
F0000380
E0000000
40000000
40000100
E0000380
F0000780
F8000F80
F8000F80
F8000F80
F8000F80
F8000F80
F8000F80
F8000F80
F8000F80
F8000F80
F8000F80
F8000F80
F8000F80
E0000F80
0FFFEF80
7FFFE780
FFFFF780
7FFFF700
3FFFF200
ENDCHAR
STARTCHAR V
ENCODING 86
SWIDTH 454 0
DWIDTH 29 0
BBX 25 41 2 1
BITMAP
20000200
70000700
F0000780
F8000F80
F8000F80
F8000F80
F8000F80
F8000F80
F8000F80
F8000F80
F8000F80
F8000F80
F8000F80
F8000F80
F8000F80
F8000F80
F8000F80
F8000F80
F0000780
E0000380
00000000
00000000
40000100
E0000380
F0000780
F8000F80
FC001F80
7E003F00
7E003F00
3F007E00
1F80FC00
0F80F800
07C1F000
07E3F000
03F7E000
01F7C000
00F78000
00F78000
00770000
00360000
00140000
ENDCHAR
STARTCHAR W
ENCODING 87
SWIDTH 454 0
DWIDTH 29 0
BBX 25 43 2 0
BITMAP
20000200
70000700
F0000780
F8000F80
F8000F80
F8000F80
F8000F80
F8000F80
F8000F80
F8000F80
F8000F80
F8000F80
F8000F80
F8000F80
F8000F80
F8000F80
F8000F80
F8000F80
F0000780
E0000380
00000000
00080000
401C0100
E03E0380
F03E0780
F83E0F80
F83E0F80
F83E0F80
F83E0F80
F83E0F80
F83E0F80
F83E0F80
F83E0F80
F83E0F80
F83E0F80
F83E0F80
F83E0F80
E0000F80
0FFFEF80
7FFFE780
FFFFF780
7FFFF700
3FFFF200
ENDCHAR
STARTCHAR X
ENCODING 88
SWIDTH 454 0
DWIDTH 30 0
BBX 25 43 2 0
BITMAP
38000E00
7C001F00
FC001F80
7E003F00
7E003F00
3F007E00
3F007E00
1F80FC00
1F80FC00
0FC1F800
0FC1F800
07E3F000
07E3F000
03F7E000
03F7E000
01F7C000
01F7C000
00F78000
00F78000
00770000
00770000
00000000
00770000
00770000
00F78000
00F78000
01F7C000
01F7C000
03F7E000
03F7E000
07E3F000
07E3F000
0FC1F800
0FC1F800
1F80FC00
1F80FC00
3F007E00
3F007E00
7E003F00
7E003F00
FC001F80
7C001F00
38000E00
ENDCHAR
STARTCHAR Y
ENCODING 89
SWIDTH 454 0
DWIDTH 29 0
BBX 25 43 2 0
BITMAP
00000200
00000700
00000780
C0000F80
F8000F80
F8000F80
F8000F80
F8000F80
F8000F80
F8000F80
F8000F80
F8000F80
F8000F80
F8000F80
F8000F80
F8000F80
F8000F80
F8000F80
F0000780
E7FFF380
4FFFF800
1FFFFC00
0FFFF900
07FFF380
00000780
00000F80
00000F80
00000F80
00000F80
00000F80
00000F80
00000F80
00000F80
00000F80
00000F80
00000F80
00000F80
00000F80
0FFFEF80
7FFFE780
FFFFF780
7FFFF700
3FFFF200
ENDCHAR
STARTCHAR Z
ENCODING 90
SWIDTH 454 0
DWIDTH 30 0
BBX 25 43 2 0
BITMAP
3FFFEE00
7FFFEF80
7FFFDF80
7FFFDF80
0FFFBF00
00003F00
00003E00
00007E00
00007C00
0000FC00
0000F800
0001F800
0001F000
0003F000
0003E000
0007E000
0007C000
0007C000
00078000
00078000
00070000
00000000
00380000
00780000
00780000
00F80000
00F80000
01F80000
01F00000
03F00000
03E00000
07E00000
07C00000
0FC00000
0F800000
1F800000
3F000000
3F000000
7EFFF800
7EFFFC00
FDFFFC00
7DFFFC00
3BFFFE00
ENDCHAR
STARTCHAR bracketleft
ENCODING 91
SWIDTH 454 0
DWIDTH 30 0
BBX 13 43 2 0
BITMAP
3FF0
7FF8
7FF0
7FE0
0FC0
E000
F800
F800
F800
F800
F800
F800
F800
F800
F800
F800
F800
F800
F000
E000
4000
0000
4000
E000
F000
F800
F800
F800
F800
F800
F800
F800
F800
F800
F800
F800
F800
E000
0FC0
7FE0
7FF0
7FF8
3FF0
ENDCHAR
STARTCHAR backslash
ENCODING 92
SWIDTH 454 0
DWIDTH 30 0
BBX 25 43 2 0
BITMAP
38000000
7C000000
FC000000
7E000000
7E000000
3F000000
3F000000
1F800000
1F800000
0FC00000
0FC00000
07E00000
07E00000
03F00000
03F00000
01F00000
01F00000
00F00000
00F00000
00700000
00700000
00000000
00070000
00078000
00078000
0007C000
0007C000
0007E000
0007E000
0003F000
0003F000
0001F800
0001F800
0000FC00
0000FC00
00007E00
00007E00
00003F00
00003F00
00001F80
00001F80
00000F80
00000E00
ENDCHAR
STARTCHAR bracketright
ENCODING 93
SWIDTH 454 0
DWIDTH 29 0
BBX 12 43 15 0
BITMAP
FE40
FEE0
7EF0
3DF0
1DF0
01F0
01F0
01F0
01F0
01F0
01F0
01F0
01F0
01F0
01F0
01F0
01F0
01F0
00F0
0070
0000
0000
0000
0070
00F0
01F0
01F0
01F0
01F0
01F0
01F0
01F0
01F0
01F0
01F0
01F0
01F0
01F0
1DF0
3DF0
7EF0
FEE0
FE40
ENDCHAR
STARTCHAR asciicircum
ENCODING 94
SWIDTH 454 0
DWIDTH 30 0
BBX 25 16 2 27
BITMAP
00140000
00160000
00370000
00778000
00F7C000
01F7E000
03F7F000
07E3F800
0FC1FC00
1F80FE00
3F007F00
7E003F80
FC001F80
F8000F80
70000780
20000200
ENDCHAR
STARTCHAR underscore
ENCODING 95
SWIDTH 454 0
DWIDTH 30 0
BBX 24 5 3 0
BITMAP
1FFFF8
FFFFFE
FFFFFF
FFFFFE
7FFFFC
ENDCHAR
STARTCHAR grave
ENCODING 96
SWIDTH 454 0
DWIDTH 30 0
BBX 10 11 10 33
BITMAP
E000
F000
F800
FC00
7E00
3F00
1F80
0FC0
07C0
03C0
01C0
ENDCHAR
STARTCHAR a
ENCODING 97
SWIDTH 454 0
DWIDTH 29 0
BBX 25 43 2 0
BITMAP
3FFFF200
7FFFF700
FFFFF780
7FFFE780
0FFFEF80
E0000F80
F8000F80
F8000F80
F8000F80
F8000F80
F8000F80
F8000F80
F8000F80
F8000F80
F8000F80
F8000F80
F8000F80
F8000F80
F0000780
E7FFF380
4FFFF900
1FFFFC00
0FFFF800
E7FFF380
F0000780
F8000F80
F8000F80
F8000F80
F8000F80
F8000F80
F8000F80
F8000F80
F8000F80
F8000F80
F8000F80
F8000F80
F8000F80
F8000F80
F8000F80
F8000F80
F0000780
70000700
20000200
ENDCHAR
STARTCHAR b
ENCODING 98
SWIDTH 454 0
DWIDTH 29 0
BBX 25 43 2 0
BITMAP
FFFFF000
FFFFF800
FFFFFC00
7FFFF800
0FFFF600
E0000F00
F8000F80
F8000F80
F8000F80
F8000F80
F8000F80
F8000F80
F8000F80
F8000F80
F8000F80
F8000F80
F8000F80
F8000F80
F0000780
E7FFF380
4FFFF900
1FFFFC00
4FFFF800
E7FFF380
F0000780
F8000F80
F8000F80
F8000F80
F8000F80
F8000F80
F8000F80
F8000F80
F8000F80
F8000F80
F8000F80
F8000F80
F8000F80
E0000F80
0FFFFF00
7FFFFC00
FFFFF800
FFFFF800
FFFFF000
ENDCHAR
STARTCHAR c
ENCODING 99
SWIDTH 454 0
DWIDTH 30 0
BBX 23 43 2 0
BITMAP
3FFFFE
7FFFFC
7FFFFC
7FFFFC
0FFFF8
E00000
F80000
F80000
F80000
F80000
F80000
F80000
F80000
F80000
F80000
F80000
F80000
F80000
F00000
E00000
400000
000000
400000
E00000
F00000
F80000
F80000
F80000
F80000
F80000
F80000
F80000
F80000
F80000
F80000
F80000
F80000
E00000
0FFFF8
7FFFF8
FFFFFC
7FFFFC
3FFFFE
ENDCHAR
STARTCHAR d
ENCODING 100
SWIDTH 454 0
DWIDTH 29 0
BBX 25 43 2 0
BITMAP
FFFFF000
FFFFF800
FFFFFC00
7FFFF800
0FFFF600
E0000F00
F8000F80
F8000F80
F8000F80
F8000F80
F8000F80
F8000F80
F8000F80
F8000F80
F8000F80
F8000F80
F8000F80
F8000F80
F0000780
E0000380
40000100
00000000
40000000
E0000380
F0000780
F8000F80
F8000F80
F8000F80
F8000F80
F8000F80
F8000F80
F8000F80
F8000F80
F8000F80
F8000F80
F8000F80
F8000F80
E0000F80
0FFFFF00
7FFFFC00
FFFFF800
FFFFF800
FFFFF000
ENDCHAR
STARTCHAR e
ENCODING 101
SWIDTH 454 0
DWIDTH 30 0
BBX 23 43 2 0
BITMAP
3FFFFE
7FFFFC
7FFFFC
7FFFFC
0FFFF8
E00000
F80000
F80000
F80000
F80000
F80000
F80000
F80000
F80000
F80000
F80000
F80000
F80000
F00000
E7FFF8
4FFFFC
1FFFFE
4FFFFC
E7FFF8
F00000
F80000
F80000
F80000
F80000
F80000
F80000
F80000
F80000
F80000
F80000
F80000
F80000
E00000
0FFFF8
7FFFF8
FFFFFC
7FFFFC
3FFFFE
ENDCHAR
STARTCHAR f
ENCODING 102
SWIDTH 454 0
DWIDTH 30 0
BBX 23 43 2 0
BITMAP
3FFFFE
7FFFFC
7FFFFC
7FFFFC
0FFFF8
E00000
F80000
F80000
F80000
F80000
F80000
F80000
F80000
F80000
F80000
F80000
F80000
F80000
F00000
E7FFF8
4FFFFC
1FFFFE
0FFFFC
E7FFF8
F00000
F80000
F80000
F80000
F80000
F80000
F80000
F80000
F80000
F80000
F80000
F80000
F80000
F80000
F80000
F80000
F00000
700000
200000
ENDCHAR
STARTCHAR g
ENCODING 103
SWIDTH 454 0
DWIDTH 29 0
BBX 25 43 2 0
BITMAP
3FFFFC00
7FFFFC00
FFFFFC00
7FFFF800
0FFFF800
E0000000
F8000000
F8000000
F8000000
F8000000
F8000000
F8000000
F8000000
F8000000
F8000000
F8000000
F8000000
F8000000
F0000000
E003F000
4007F800
000FFC00
4007F900
E003F380
F0000780
F8000F80
F8000F80
F8000F80
F8000F80
F8000F80
F8000F80
F8000F80
F8000F80
F8000F80
F8000F80
F8000F80
F8000F80
E0000F80
0FFFEF80
7FFFE780
FFFFF780
7FFFF700
3FFFF200
ENDCHAR
STARTCHAR h
ENCODING 104
SWIDTH 454 0
DWIDTH 29 0
BBX 25 43 2 0
BITMAP
00000200
20000700
70000780
F0000F80
F8000F80
F8000F80
F8000F80
F8000F80
F8000F80
F8000F80
F8000F80
F8000F80
F8000F80
F8000F80
F8000F80
F8000F80
F8000F80
F8000F80
F8000780
F7FFF380
EFFFF800
5FFFFC00
0FFFF800
E7FFF380
F0000780
F8000F80
F8000F80
F8000F80
F8000F80
F8000F80
F8000F80
F8000F80
F8000F80
F8000F80
F8000F80
F8000F80
F8000F80
F8000F80
F8000F80
F8000F80
F0000780
70000700
20000200
ENDCHAR
STARTCHAR i
ENCODING 105
SWIDTH 454 0
DWIDTH 30 0
BBX 5 42 12 1
BITMAP
20
70
78
F8
F8
F8
F8
F8
F8
F8
F8
F8
F8
F8
F8
F8
F8
F8
78
38
00
00
38
78
F8
F8
F8
F8
F8
F8
F8
F8
F8
F8
F8
F8
F8
F8
F8
78
70
20
ENDCHAR
STARTCHAR j
ENCODING 106
SWIDTH 454 0
DWIDTH 29 0
BBX 25 43 2 0
BITMAP
00000200
00000700
00000780
00000F80
00000F80
00000F80
00000F80
00000F80
00000F80
00000F80
00000F80
00000F80
00000F80
00000F80
00000F80
00000F80
00000F80
00000F80
00000780
00000380
00000000
00000000
40000100
E0000380
F0000780
F8000F80
F8000F80
F8000F80
F8000F80
F8000F80
F8000F80
F8000F80
F8000F80
F8000F80
F8000F80
F8000F80
F8000F80
E0000F80
0FFFEF80
7FFFE780
FFFFF780
7FFFF700
3FFFF200
ENDCHAR
STARTCHAR k
ENCODING 107
SWIDTH 454 0
DWIDTH 29 0
BBX 25 43 2 0
BITMAP
20001E00
70003F00
F0007F80
F800FF00
F801FE00
F803FC00
F807F800
F80FF000
F81FE000
F83FC000
F87F8000
F8FF0000
F9FE0000
FBFC0000
FBF80000
FBF00000
FBE00000
FBC00000
F0000000
E7FFF000
0FFFF800
1FFFFC00
0FFFF800
E7FFF380
F0000780
F8000F80
F8000F80
F8000F80
F8000F80
F8000F80
F8000F80
F8000F80
F8000F80
F8000F80
F8000F80
F8000F80
F8000F80
F8000F80
F8000F80
F8000F80
F0000780
70000700
20000200
ENDCHAR
STARTCHAR l
ENCODING 108
SWIDTH 454 0
DWIDTH 30 0
BBX 25 43 2 0
BITMAP
20000000
70000000
F0000000
F8000000
F8000000
F8000000
F8000000
F8000000
F8000000
F8000000
F8000000
F8000000
F8000000
F8000000
F8000000
F8000000
F8000000
F8000000
F0000000
E0000000
00000000
00000000
40000000
E0000000
F0000000
F8000000
F8000000
F8000000
F8000000
F8000000
F8000000
F8000000
F8000000
F8000000
F8000000
F8000000
F8000000
F8000000
FBFFFC00
F3FFFF00
F7FFFF80
77FFFF00
27FFFE00
ENDCHAR
STARTCHAR m
ENCODING 109
SWIDTH 454 0
DWIDTH 29 0
BBX 25 43 2 0
BITMAP
3FFFF200
7FFFF700
FFFFF780
7FFFE780
0FFFEF80
E0000F80
F83E0F80
F83E0F80
F83E0F80
F83E0F80
F83E0F80
F83E0F80
F83E0F80
F83E0F80
F83E0F80
F83E0F80
F83E0F80
F83E0F80
F03E0780
E03E0380
401C0100
00080000
00000000
E0000380
F0000780
F8000F80
F8000F80
F8000F80
F8000F80
F8000F80
F8000F80
F8000F80
F8000F80
F8000F80
F8000F80
F8000F80
F8000F80
F8000F80
F8000F80
F8000F80
F0000780
70000700
20000200
ENDCHAR
STARTCHAR n
ENCODING 110
SWIDTH 454 0
DWIDTH 29 0
BBX 25 42 2 0
BITMAP
20000200
70000700
F0000780
F8000F80
F8000F80
FBE00F80
FBF00F80
FBF80F80
FBFC0F80
F9FE0F80
F8FF0F80
F87F8F80
F83FCF80
F81FEF80
F80FEF80
F807EF80
F803EF80
F8000F80
F0000780
E0000380
00000000
00000000
E0000380
F0000780
F8000F80
F8000F80
F8000F80
F8000F80
F8000F80
F8000F80
F8000F80
F8000F80
F8000F80
F8000F80
F8000F80
F8000F80
F8000F80
F8000F80
F8000F80
F0000780
70000700
20000200
ENDCHAR
STARTCHAR o
ENCODING 111
SWIDTH 454 0
DWIDTH 29 0
BBX 25 43 2 0
BITMAP
03FFF000
07FFF800
0FFFFC00
07FFF800
33FFF600
78000F00
F8000F80
F8000F80
F8000F80
F8000F80
F8000F80
F8000F80
F8000F80
F8000F80
F8000F80
F8000F80
F8000F80
F8000F80
F0000780
E0000380
40000100
00000000
00000000
E0000380
F0000780
F8000F80
F8000F80
F8000F80
F8000F80
F8000F80
F8000F80
F8000F80
F8000F80
F8000F80
F8000F80
F8000F80
F8000F80
F8000F80
7BFFFF00
17FFFC00
0FFFFC00
07FFF800
03FFF000
ENDCHAR
STARTCHAR p
ENCODING 112
SWIDTH 454 0
DWIDTH 29 0
BBX 25 43 2 0
BITMAP
FFFFF000
FFFFF800
FFFFFC00
7FFFF800
0FFFF600
E0000F00
F8000F80
F8000F80
F8000F80
F8000F80
F8000F80
F8000F80
F8000F80
F8000F80
F8000F80
F8000F80
F8000F80
F8000F80
F0000780
E7FFF380
4FFFF900
1FFFFC00
0FFFF800
E7FFF000
F0000000
F8000000
F8000000
F8000000
F8000000
F8000000
F8000000
F8000000
F8000000
F8000000
F8000000
F8000000
F8000000
F8000000
F8000000
F8000000
F0000000
70000000
20000000
ENDCHAR
STARTCHAR q
ENCODING 113
SWIDTH 454 0
DWIDTH 29 0
BBX 26 44 2 -1
BITMAP
3FFFF200
7FFFF700
FFFFF780
7FFFE780
0FFFEF80
E0000F80
F8000F80
F8000F80
F8000F80
F8000F80
F8000F80
F8000F80
F8000F80
F8000F80
F8000F80
F8000F80
F8000F80
F8000F80
F0000780
E0000380
40000100
00000000
40000000
E0000380
F0000780
F8000F80
F8000F80
F8000F80
F8000F80
F8000F80
F8000F80
F8000F80
F8000F80
F801E780
F801F380
F801F980
F801FC80
E000FE00
0FFE7F00
7FFF3F80
FFFF9FC0
7FFFCFC0
3FFFE7C0
000003C0
ENDCHAR
STARTCHAR r
ENCODING 114
SWIDTH 454 0
DWIDTH 29 0
BBX 25 43 2 0
BITMAP
3FFFF200
7FFFF700
FFFFF780
7FFFE780
0FFFEF80
E0000F80
F8000F80
F8000F80
F8000F80
F8000F80
F8000F80
F8000F80
F8000F80
F8000F80
F8000F80
F8000F80
F8000F80
F8000F80
F0000780
E7FFF380
4FFFF900
1FFFFC00
0FFFF800
E7FFF000
F0000000
FBC00000
FBE00000
FBF00000
FBF80000
FBFC0000
F9FE0000
F8FF0000
F87F8000
F83FC000
F81FE000
F80FF000
F807F800
F803FC00
F801FE00
F800FF00
F0007F80
70003F00
20001E00
ENDCHAR
STARTCHAR s
ENCODING 115
SWIDTH 454 0
DWIDTH 29 0
BBX 25 43 2 0
BITMAP
3FFFFE00
7FFFFF00
FFFFFF80
7FFFFF00
0FFFF800
E0000000
F8000000
F8000000
F8000000
F8000000
F8000000
F8000000
F8000000
F8000000
F8000000
F8000000
F8000000
F8000000
F0000000
E7FFF000
4FFFF800
1FFFFC00
0FFFF900
07FFF380
00000780
00000F80
00000F80
00000F80
00000F80
00000F80
00000F80
00000F80
00000F80
00000F80
00000F80
00000F80
00000F80
00000F80
0FFFEF80
7FFFE780
FFFFF780
7FFFF700
3FFFF200
ENDCHAR
STARTCHAR t
ENCODING 116
SWIDTH 454 0
DWIDTH 30 0
BBX 24 43 3 0
BITMAP
7FFFFC
FFFFFE
FFFFFF
FFFFFE
1FFFF8
000000
007C00
007C00
007C00
007C00
007C00
007C00
007C00
007C00
007C00
007C00
007C00
007C00
007C00
003800
001000
000000
001000
003800
007C00
007C00
007C00
007C00
007C00
007C00
007C00
007C00
007C00
007C00
007C00
007C00
007C00
007C00
007C00
007C00
003C00
003800
001000
ENDCHAR
STARTCHAR u
ENCODING 117
SWIDTH 454 0
DWIDTH 29 0
BBX 25 43 2 0
BITMAP
00000200
20000700
70000780
F0000F80
F8000F80
F8000F80
F8000F80
F8000F80
F8000F80
F8000F80
F8000F80
F8000F80
F8000F80
F8000F80
F8000F80
F8000F80
F8000F80
F8000F80
F8000780
F0000380
E0000000
40000000
40000100
E0000380
F0000780
F8000F80
F8000F80
F8000F80
F8000F80
F8000F80
F8000F80
F8000F80
F8000F80
F8000F80
F8000F80
F8000F80
F8000F80
E0000F80
0FFFEF80
7FFFE780
FFFFF780
7FFFF700
3FFFF200
ENDCHAR
STARTCHAR v
ENCODING 118
SWIDTH 454 0
DWIDTH 29 0
BBX 25 41 2 1
BITMAP
20000200
70000700
F0000780
F8000F80
F8000F80
F8000F80
F8000F80
F8000F80
F8000F80
F8000F80
F8000F80
F8000F80
F8000F80
F8000F80
F8000F80
F8000F80
F8000F80
F8000F80
F0000780
E0000380
00000000
00000000
40000100
E0000380
F0000780
F8000F80
FC001F80
7E003F00
7E003F00
3F007E00
1F80FC00
0F80F800
07C1F000
07E3F000
03F7E000
01F7C000
00F78000
00F78000
00770000
00360000
00140000
ENDCHAR
STARTCHAR w
ENCODING 119
SWIDTH 454 0
DWIDTH 29 0
BBX 25 43 2 0
BITMAP
20000200
70000700
F0000780
F8000F80
F8000F80
F8000F80
F8000F80
F8000F80
F8000F80
F8000F80
F8000F80
F8000F80
F8000F80
F8000F80
F8000F80
F8000F80
F8000F80
F8000F80
F0000780
E0000380
00000000
00080000
401C0100
E03E0380
F03E0780
F83E0F80
F83E0F80
F83E0F80
F83E0F80
F83E0F80
F83E0F80
F83E0F80
F83E0F80
F83E0F80
F83E0F80
F83E0F80
F83E0F80
E0000F80
0FFFEF80
7FFFE780
FFFFF780
7FFFF700
3FFFF200
ENDCHAR
STARTCHAR x
ENCODING 120
SWIDTH 454 0
DWIDTH 30 0
BBX 25 43 2 0
BITMAP
38000E00
7C001F00
FC001F80
7E003F00
7E003F00
3F007E00
3F007E00
1F80FC00
1F80FC00
0FC1F800
0FC1F800
07E3F000
07E3F000
03F7E000
03F7E000
01F7C000
01F7C000
00F78000
00F78000
00770000
00770000
00000000
00770000
00770000
00F78000
00F78000
01F7C000
01F7C000
03F7E000
03F7E000
07E3F000
07E3F000
0FC1F800
0FC1F800
1F80FC00
1F80FC00
3F007E00
3F007E00
7E003F00
7E003F00
FC001F80
7C001F00
38000E00
ENDCHAR
STARTCHAR y
ENCODING 121
SWIDTH 454 0
DWIDTH 29 0
BBX 25 43 2 0
BITMAP
00000200
00000700
00000780
C0000F80
F8000F80
F8000F80
F8000F80
F8000F80
F8000F80
F8000F80
F8000F80
F8000F80
F8000F80
F8000F80
F8000F80
F8000F80
F8000F80
F8000F80
F0000780
E7FFF380
4FFFF800
1FFFFC00
0FFFF900
07FFF380
00000780
00000F80
00000F80
00000F80
00000F80
00000F80
00000F80
00000F80
00000F80
00000F80
00000F80
00000F80
00000F80
00000F80
0FFFEF80
7FFFE780
FFFFF780
7FFFF700
3FFFF200
ENDCHAR
STARTCHAR z
ENCODING 122
SWIDTH 454 0
DWIDTH 30 0
BBX 25 43 2 0
BITMAP
3FFFEE00
7FFFEF80
7FFFDF80
7FFFDF80
0FFFBF00
00003F00
00003E00
00007E00
00007C00
0000FC00
0000F800
0001F800
0001F000
0003F000
0003E000
0007E000
0007C000
0007C000
00078000
00078000
00070000
00000000
00380000
00780000
00780000
00F80000
00F80000
01F80000
01F00000
03F00000
03E00000
07E00000
07C00000
0FC00000
0F800000
1F800000
3F000000
3F000000
7EFFF800
7EFFFC00
FDFFFC00
7DFFFC00
3BFFFE00
ENDCHAR
STARTCHAR braceleft
ENCODING 123
SWIDTH 454 0
DWIDTH 30 0
BBX 19 43 2 0
BITMAP
007FE0
00FFE0
01FFC0
00FF80
003F00
01C000
01F000
01F000
01F000
01F000
01F000
01F000
01F000
01F000
01F000
01F000
01F000
01F000
00F000
3E7000
7F2000
FF8000
7F2000
3E7000
00F000
01F000
01F000
01F000
01F000
01F000
01F000
01F000
01F000
01F000
01F000
01F000
01F000
01C000
003F00
00FF80
01FFC0
00FFE0
007FE0
ENDCHAR
STARTCHAR bar
ENCODING 124
SWIDTH 454 0
DWIDTH 30 0
BBX 5 43 2 0
BITMAP
20
70
78
F8
F8
F8
F8
F8
F8
F8
F8
F8
F8
F8
F8
F8
F8
F8
F8
F8
F8
F8
F8
F8
F8
F8
F8
F8
F8
F8
F8
F8
F8
F8
F8
F8
F8
F8
F8
F8
78
70
20
ENDCHAR
STARTCHAR braceright
ENCODING 125
SWIDTH 454 0
DWIDTH 30 0
BBX 19 43 5 0
BITMAP
FFC000
FFE000
7FF000
3FE000
1F8000
007000
01F000
01F000
01F000
01F000
01F000
01F000
01F000
01F000
01F000
01F000
01F000
01F000
01E000
01CF80
009FC0
003FE0
009FC0
01CF80
01E000
01F000
01F000
01F000
01F000
01F000
01F000
01F000
01F000
01F000
01F000
01F000
01F000
007000
1F8000
3FE000
7FF000
FFE000
FFC000
ENDCHAR
STARTCHAR asciitilde
ENCODING 126
SWIDTH 454 0
DWIDTH 30 0
BBX 26 12 2 20
BITMAP
03C00000
07E00000
07E00000
3BDC0700
7DBE0F80
FE7F1FC0
7C3E0F80
381CE700
0001F000
0003F800
0001F000
0000E000
ENDCHAR
STARTCHAR copyright
ENCODING 169
SWIDTH 454 0
DWIDTH 30 0
BBX 29 43 0 0
BITMAP
3FFFFF20
7FFFFF70
7FFFFF78
7FFFFE78
0FFFFEF8
E00000F8
F80000F8
F80000F8
F80000F8
F80000F8
F87FFCF8
F8FFF8F8
F9FFF8F8
F8FFF0F8
F81FF0F8
F9C000F8
F9F000F8
F9F000F8
F9F000F8
F9F000F8
F9F000F8
F9F000F8
F9F000F8
F9F000F8
F9F000F8
F9F000F8
F9F000F8
F9F000F8
F9F000F8
F9F7E0F8
F9EFF8F8
F9EFF8F8
F8EFF0F8
F85FE0F8
F80000F8
F80000F8
F80000F8
E00000F8
0FFFFEF8
7FFFFE78
FFFFFF78
7FFFFF70
3FFFFF20
ENDCHAR
STARTCHAR endash
ENCODING 8211
SWIDTH 454 0
DWIDTH 30 0
BBX 26 5 2 19
BITMAP
3FFFFF00
7FFFFF80
FFFFFFC0
7FFFFF80
3FFFFF00
ENDCHAR
STARTCHAR emdash
ENCODING 8212
SWIDTH 454 0
DWIDTH 30 0
BBX 28 5 1 19
BITMAP
7FFFFFC0
7FFFFFE0
FFFFFFF0
7FFFFFE0
7FFFFFC0
ENDCHAR
STARTCHAR quoteleft
ENCODING 8216
SWIDTH 454 0
DWIDTH 30 0
BBX 5 12 13 31
BITMAP
20
70
F8
F8
F8
F8
F8
F8
F8
F8
F8
F8
ENDCHAR
STARTCHAR quoteright
ENCODING 8217
SWIDTH 454 0
DWIDTH 30 0
BBX 5 12 13 31
BITMAP
F8
F8
F8
F8
F8
F8
F8
F8
F8
F8
70
20
ENDCHAR
STARTCHAR quotedblleft
ENCODING 8220
SWIDTH 454 0
DWIDTH 30 0
BBX 15 12 8 31
BITMAP
2008
701C
F83E
F83E
F83E
F83E
F83E
F83E
F83E
F83E
F83E
F83E
ENDCHAR
STARTCHAR quotedblright
ENCODING 8221
SWIDTH 454 0
DWIDTH 30 0
BBX 15 12 8 31
BITMAP
F83E
F83E
F83E
F83E
F83E
F83E
F83E
F83E
F83E
F83E
701C
2008
ENDCHAR
STARTCHAR bullet
ENCODING 8226
SWIDTH 454 0
DWIDTH 30 0
BBX 17 17 6 13
BITMAP
03E000
0FF800
3FFE00
3FFE00
7FFF00
FFFF80
FFFF80
FFFF80
FFFF80
FFFF80
FFFF80
FFFF80
7FFF00
3FFE00
3FFE00
0FF800
03F000
ENDCHAR
STARTCHAR perthousand
ENCODING 8240
SWIDTH 454 0
DWIDTH 30 0
BBX 29 43 0 0
BITMAP
3E800000
7DC00000
FDE00180
7DE003E0
8BE007E0
F3E00FE0
FBE01FC0
FBE03F80
F9E07F00
F860FE00
F781FC00
F7E3F800
77E3F000
6FC3E000
000FC000
001F8000
003F0000
007C0000
00FC0000
01FC0000
03F80000
07F00000
0FE00000
1FC00000
3F800000
7F000000
7E000000
7C000000
38000000
07E81FB0
0FDC3F70
0FDE3F78
03DE0E78
083E20F8
0F3E3CF8
0FBE3EF8
0FBE3EF8
0F9E3E78
0FA23E88
0F7C3DF0
0F7E3DF8
077E1DF0
02F80BE0
ENDCHAR
STARTCHAR .notdef
ENCODING -1
SWIDTH 454 0
DWIDTH 30 0
BBX 29 43 0 0
BITMAP
3FFFFF20
7FFFFF70
FFFFFF78
7FFFFE78
0FFFFEF8
E00000F8
F80000F8
F80000F8
F80000F8
F80000F8
F80000F8
F80000F8
F80000F8
F80000F8
F80000F8
F80000F8
F80000F8
F80000F8
F80000F8
F80000F8
F80000F8
F80000F8
F80000F8
F80000F8
F80000F8
F80000F8
F80000F8
F80000F8
F80000F8
F80000F8
F80000F8
F80000F8
F80000F8
F80000F8
F80000F8
F80000F8
F80000F8
E00000F8
0FFFFEF8
7FFFFE78
FFFFFF78
7FFFFF70
3FFFFF20
ENDCHAR
STARTCHAR NULL
ENCODING -1
SWIDTH 454 0
DWIDTH 30 0
BBX 1 1 0 0
BITMAP
00
ENDCHAR
STARTCHAR nonmarkingreturn
ENCODING -1
SWIDTH 454 0
DWIDTH 30 0
BBX 1 1 0 0
BITMAP
00
ENDCHAR
ENDFONT
